<svg xmlns="http://www.w3.org/2000/svg" width="67" height="70" viewBox="0 0 67 70"><defs><clipPath id="tm1fa"><path fill="#fff" d="M62.675 67.857L33.86 12.86 5.046 67.857z"/></clipPath><clipPath id="tm1fb"><path fill="#fff" d="M33.5 0C52.002 0 67 14.87 67 33.214S52.002 66.43 33.5 66.43C14.998 66.429 0 51.558 0 33.214S14.998 0 33.5 0z"/></clipPath></defs><g><g><g><path fill="none" stroke="#fff" stroke-miterlimit="50" stroke-width="4" d="M62.675 67.857v0L33.86 12.86v0L5.046 67.857v0z" clip-path="url(&quot;#tm1fa&quot;)"/></g><g><path fill="none" stroke="#f6f7fc" stroke-miterlimit="50" stroke-width="4" d="M33.5 0C52.002 0 67 14.87 67 33.214S52.002 66.43 33.5 66.43C14.998 66.429 0 51.558 0 33.214S14.998 0 33.5 0z" clip-path="url(&quot;#tm1fb&quot;)"/></g><g><path fill="#fff" d="M33.86 62.857c1.99 0 3.602 1.599 3.602 3.572 0 1.972-1.612 3.57-3.602 3.57-1.99 0-3.602-1.598-3.602-3.57 0-1.973 1.613-3.572 3.602-3.572z"/></g><g><path fill="#fff" d="M60.516 62.857c1.99 0 3.602 1.599 3.602 3.572 0 1.972-1.613 3.57-3.602 3.57-1.99 0-3.602-1.598-3.602-3.57 0-1.973 1.613-3.572 3.602-3.572z"/></g><g><path fill="#fff" d="M5.043 62.857c1.99 0 3.602 1.599 3.602 3.572 0 1.972-1.613 3.57-3.602 3.57-1.99 0-3.602-1.598-3.602-3.57 0-1.973 1.613-3.572 3.602-3.572z"/></g></g></g></svg>