<svg xmlns="http://www.w3.org/2000/svg" width="79" height="91" viewBox="0 0 79 91"><g><g><path fill="#3c3c3c" d="M21.756 38.114c-.402 0-.803-.152-1.11-.457L17.55 34.58a1.552 1.552 0 0 1 0-2.205 1.577 1.577 0 0 1 2.22 0l1.988 1.975 5.086-5.052a1.577 1.577 0 0 1 2.22 0 1.552 1.552 0 0 1 0 2.205l-6.196 6.154c-.308.305-.71.457-1.111.457zm32.555-3.077H35.637c-.866 0-1.57-.698-1.57-1.559s.704-1.559 1.57-1.559h18.674c.866 0 1.57.698 1.57 1.559s-.703 1.559-1.57 1.559zM21.756 64.794c-.402 0-.803-.152-1.11-.456L17.55 61.26a1.553 1.553 0 0 1 0-2.206 1.577 1.577 0 0 1 2.22 0l1.988 1.976 5.086-5.052a1.577 1.577 0 0 1 2.22 0 1.553 1.553 0 0 1 0 2.205l-6.196 6.155c-.308.304-.71.455-1.111.455zm32.555-3.077H35.637c-.866 0-1.57-.697-1.57-1.558 0-.862.704-1.56 1.57-1.56h18.674c.866 0 1.57.698 1.57 1.56 0 .86-.703 1.558-1.57 1.558zm-32.555 16.42c-.402 0-.803-.153-1.11-.457l-3.097-3.078a1.552 1.552 0 0 1 0-2.205 1.577 1.577 0 0 1 2.22 0l1.988 1.976 5.086-5.052a1.577 1.577 0 0 1 2.22 0 1.551 1.551 0 0 1 0 2.205l-6.196 6.154a1.58 1.58 0 0 1-1.111.457zm32.555-3.079H35.637c-.866 0-1.57-.698-1.57-1.559s.704-1.559 1.57-1.559h18.674c.866 0 1.57.698 1.57 1.56 0 .86-.703 1.558-1.57 1.558zM21.756 51.454a1.57 1.57 0 0 1-1.11-.457L17.55 47.92a1.552 1.552 0 0 1 0-2.205 1.577 1.577 0 0 1 2.22 0l1.988 1.974 5.086-5.051a1.577 1.577 0 0 1 2.22 0 1.551 1.551 0 0 1 0 2.205l-6.196 6.154c-.308.305-.71.457-1.111.457zm32.555-3.076H35.637c-.866 0-1.57-.698-1.57-1.56 0-.86.704-1.558 1.57-1.558h18.674c.866 0 1.57.698 1.57 1.559s-.703 1.56-1.57 1.56zm24.67-34.895v75.438a2.079 2.079 0 0 1-2.093 2.08H2.081A2.079 2.079 0 0 1-.01 88.92V13.483c0-1.143.931-2.078 2.092-2.078h20.467c.22-3.18 2.887-5.686 6.13-5.686h5.995C34.705 2.57 37.3.013 40.48.013c3.19 0 5.774 2.557 5.816 5.706h5.985c3.253 0 5.921 2.505 6.14 5.686h18.467c1.161 0 2.093.935 2.093 2.078zm-52.268-1.641v4.26h27.546v-4.26a1.97 1.97 0 0 0-1.977-1.965h-6.54c-1.997 0-3.63-1.62-3.63-3.606v-.478a1.627 1.627 0 1 0-3.254 0v.478c0 1.984-1.632 3.606-3.64 3.606h-6.54a1.968 1.968 0 0 0-1.967 1.965zm48.081 75v-71.28H58.441v2.62a2.078 2.078 0 0 1-2.092 2.078H24.62a2.078 2.078 0 0 1-2.093-2.079v-2.619H4.173v71.28zM40.484 10.14c1.11 0 2.01.894 2.01 1.997 0 1.102-.9 1.996-2.01 1.996-1.11 0-2.01-.894-2.01-1.996 0-1.103.9-1.997 2.01-1.997z"/></g></g></svg>