<svg xmlns="http://www.w3.org/2000/svg" width="80" height="83" viewBox="0 0 80 83"><g><g><path fill="#3c3c3c" d="M79.98 2.014v12.263c0 1.125-.899 2.025-2.024 2.025H66.032c-1.125 0-2.025-.9-2.025-2.025v-4.163H41.959c.225 4.838 12.261 28.24 19.91 41.965.45.788.226 1.913-.45 2.475-6.861 5.85-8.549 11.589-8.999 14.513h2.588c1.125 0 2.025.9 2.025 2.026v9.9c0 1.125-.9 2.025-2.025 2.025H25.085c-1.125 0-2.025-.9-2.025-2.025v-9.9c0-1.126.9-2.026 2.025-2.026h2.587c-.45-2.924-2.137-8.663-9-14.513-.674-.675-.9-1.687-.45-2.475 7.65-13.725 19.687-37.014 19.912-41.965h-22.16v4.163c0 1.125-.9 2.025-2.026 2.025H2.024c-1.125 0-2.025-.9-2.025-2.025V2.014C0 .889.9-.011 2.024-.011h11.812c1.125 0 2.024.9 2.024 2.025v4.163h48.147V2.014c0-1.125.9-2.025 2.025-2.025h11.924c1.125 0 2.025.9 2.025 2.025zM11.924 3.926H3.936v8.326h7.987zM37.46 47.804c0 1.463 1.125 2.588 2.587 2.588 1.463 0 2.588-1.125 2.588-2.588s-1.125-2.588-2.588-2.588c-1.35 0-2.587 1.238-2.587 2.588zm15.636 25.089H27.11v5.962h25.985zm4.612-20.364c-2.7-5.063-10.686-19.913-15.636-30.939v20.026c2.587.9 4.5 3.262 4.5 6.188a6.53 6.53 0 0 1-6.525 6.525 6.53 6.53 0 0 1-6.524-6.525c0-2.926 1.912-5.4 4.5-6.188V21.702C33.183 32.728 25.084 47.58 22.384 52.53c7.087 6.638 8.774 13.163 9.224 16.426h16.874c.45-3.263 2.138-9.788 9.224-16.426zm18.337-48.49h-7.987V12.252h7.987z"/></g></g></svg>